<?xml version="1.0" standalone="no"?>
<!DOCTYPE svg PUBLIC "-//W3C//DTD SVG 20010904//EN"
 "http://www.w3.org/TR/2001/REC-SVG-20010904/DTD/svg10.dtd">
<svg version="1.0" xmlns="http://www.w3.org/2000/svg"
 width="225.000000pt" height="225.000000pt" viewBox="0 0 225.000000 225.000000"
 preserveAspectRatio="xMidYMid meet">

<g transform="translate(0.000000,225.000000) scale(0.100000,-0.100000)"
fill="#000000" stroke="none">
<path d="M1075 2219 c-132 -102 -244 -158 -536 -269 -110 -42 -182 -63 -245
-71 -49 -7 -95 -18 -102 -24 -38 -35 -37 -410 3 -640 89 -520 372 -929 795
-1149 59 -31 119 -56 134 -56 15 0 66 20 114 44 461 234 745 656 828 1232 12
83 17 179 17 314 -1 197 -7 247 -34 261 -7 4 -63 15 -124 24 -246 37 -561 179
-765 344 -33 27 -38 26 -85 -10z m78 -102 c4 3 7 2 7 -4 0 -13 237 -171 319
-213 76 -38 188 -70 366 -105 l140 -28 -2 -181 c-2 -172 -13 -289 -34 -383 -5
-24 -8 -46 -7 -50 0 -5 -1 -15 -5 -23 -6 -17 -58 -199 -60 -215 -1 -5 -6 -13
-10 -16 -4 -3 -9 -16 -10 -27 -1 -12 -4 -22 -7 -22 -7 0 -35 -72 -32 -82 1 -5
-3 -8 -9 -8 -5 0 -7 -4 -4 -10 3 -5 1 -10 -5 -10 -6 0 -8 -5 -5 -10 3 -6 2
-10 -3 -10 -8 0 -36 -50 -32 -59 1 -2 -2 -7 -7 -10 -10 -7 -79 -106 -74 -106
12 0 -206 -225 -242 -250 -123 -84 -164 -110 -229 -145 -57 -30 -84 -40 -100
-34 -23 7 -149 80 -200 116 -16 11 -28 17 -28 15 0 -3 -16 9 -36 26 -19 18
-37 31 -39 30 -2 -1 -53 48 -112 110 -59 62 -111 115 -116 118 -5 3 -8 8 -7
10 3 4 -92 156 -110 176 -6 7 -10 16 -10 20 0 18 -12 43 -21 43 -5 0 -8 3 -7
8 4 11 -35 112 -43 112 -4 0 -6 6 -6 13 2 22 -27 107 -36 107 -4 0 -6 4 -3 8
5 8 -7 65 -21 102 -3 8 -7 26 -8 40 -2 14 -11 72 -19 130 -9 58 -17 186 -19
287 l-2 182 65 11 c270 46 465 126 702 285 59 39 97 59 104 54 6 -5 14 -6 17
-2z"/>
<path d="M1084 1965 c-13 -13 -25 -24 -27 -23 -3 3 -101 -64 -108 -75 -3 -5
-9 -8 -13 -8 -3 1 -44 -17 -90 -39 -46 -22 -109 -47 -140 -57 -31 -9 -56 -20
-56 -24 0 -4 -9 -5 -20 -2 -11 3 -20 1 -20 -5 0 -6 -9 -8 -20 -5 -11 3 -20 1
-20 -3 0 -5 -28 -10 -63 -12 -76 -3 -110 -25 -116 -73 -11 -100 -1 -425 15
-451 4 -6 9 -29 11 -52 2 -23 8 -43 13 -44 6 -2 8 -7 5 -12 -7 -11 36 -150 47
-150 5 0 7 -4 3 -9 -7 -12 73 -181 85 -181 6 0 9 -3 8 -7 -4 -12 42 -83 53
-83 6 0 8 -4 5 -9 -7 -11 171 -201 188 -201 6 0 17 -9 24 -21 7 -12 16 -19 19
-16 2 3 13 -3 23 -13 23 -23 144 -94 196 -115 38 -15 43 -15 86 4 25 10 76 38
113 60 37 23 70 41 74 41 3 0 19 16 34 35 15 19 34 35 41 35 30 0 268 280 239
280 -4 0 -3 4 4 8 13 9 80 139 85 167 1 11 6 22 9 25 10 8 50 142 44 148 -3 3
0 11 5 18 6 6 12 28 14 46 2 19 6 40 10 46 4 7 9 115 11 242 5 216 4 231 -14
246 -10 9 -17 24 -16 33 1 9 0 11 -2 5 -3 -7 -23 -8 -66 -2 -34 5 -74 11 -88
12 -14 2 -31 6 -37 10 -7 4 -16 5 -21 2 -5 -4 -11 -3 -13 1 -1 5 -28 17 -58
27 -30 10 -92 36 -137 58 -46 21 -86 38 -89 37 -4 0 -10 3 -13 8 -7 11 -92 70
-103 72 -4 1 -19 13 -32 26 -14 14 -32 25 -41 25 -9 0 -27 -11 -41 -25z m162
-174 c134 -83 298 -148 440 -175 l69 -12 -1 -165 c-1 -182 -17 -288 -64 -431
-90 -268 -255 -469 -492 -598 l-71 -39 -67 34 c-360 181 -570 572 -570 1059
l0 142 69 12 c156 27 347 104 491 201 68 45 77 48 95 35 11 -7 56 -36 101 -63z"/>
<path d="M1385 1455 c-5 -2 -23 -6 -40 -10 -20 -4 -72 -49 -160 -136 l-131
-129 -44 46 c-25 25 -63 55 -84 66 -105 54 -227 -30 -213 -148 6 -57 27 -84
161 -208 182 -167 183 -167 440 81 105 102 199 198 209 214 40 61 15 160 -48
198 -31 19 -73 31 -90 26z m53 -107 c7 -7 12 -26 12 -44 0 -28 -21 -52 -189
-213 -120 -114 -197 -181 -210 -181 -30 0 -251 218 -251 248 0 28 33 62 61 62
13 0 52 -30 100 -76 64 -62 82 -75 101 -71 13 4 86 69 163 147 119 119 144
140 170 140 17 0 36 -5 43 -12z"/>
</g>
</svg>
