<svg xmlns="http://www.w3.org/2000/svg" xmlns:xlink="http://www.w3.org/1999/xlink" width="600" zoomAndPan="magnify" viewBox="0 0 450 449.999984" height="600" preserveAspectRatio="xMidYMid meet" version="1.0"><path fill="#000000" d="M 343.59375 94.550781 C 337.324219 96.246094 332.664062 99.128906 328.171875 104.128906 C 321.644531 111.339844 317.324219 122.699219 317.324219 132.367188 L 317.324219 137.285156 L 320.289062 137.285156 C 323.085938 137.285156 323.253906 137.453125 323.253906 140.253906 C 323.253906 142.796875 323 143.21875 321.222656 143.21875 C 318.253906 143.21875 301.222656 148.476562 291.050781 152.546875 C 265.710938 162.636719 239.691406 178.832031 227.660156 191.976562 C 221.558594 198.675781 216.640625 207.832031 215.964844 214.105469 C 215.453125 218.007812 215.625 218.601562 218.082031 221.398438 C 219.523438 223.09375 220.710938 224.621094 220.710938 224.960938 C 220.710938 225.214844 203.757812 225.46875 182.996094 225.46875 L 145.28125 225.46875 L 145.28125 227.757812 C 145.28125 229.03125 146.976562 233.523438 149.011719 237.761719 C 152.488281 244.714844 155.539062 248.703125 160.113281 252.179688 C 161.808594 253.449219 161.808594 253.535156 159.691406 254.976562 C 143.757812 266 130.367188 278.632812 123.757812 288.808594 C 119.351562 295.761719 115.453125 305.34375 115.789062 308.394531 L 116.042969 310.683594 L 133.503906 311.191406 L 132.824219 315.601562 C 130.621094 330.273438 134.773438 340.445312 145.367188 346.296875 C 149.4375 348.503906 150.960938 348.839844 158.503906 349.09375 C 164.859375 349.351562 168.335938 349.09375 172.0625 347.992188 C 187.574219 343.5 201.21875 331.96875 208.503906 317.296875 L 211.554688 311.109375 L 347.832031 311.109375 L 347.238281 314.667969 C 344.527344 329.847656 349.441406 341.378906 360.96875 346.890625 C 365.460938 349.011719 366.984375 349.265625 374.191406 349.265625 C 386.476562 349.265625 396.902344 345.363281 407.070312 337.054688 C 419.785156 326.539062 428.429688 309.328125 427.242188 296.863281 C 426.820312 293.300781 423.851562 285.417969 420.972656 280.582031 C 420.800781 280.328125 424.613281 280.160156 429.359375 280.160156 L 438.089844 280.160156 L 438.003906 276.683594 C 438.003906 274.5625 436.820312 270.746094 434.953125 266.933594 C 427.667969 251.667969 416.5625 241.917969 400.800781 236.832031 C 396.5625 235.472656 394.785156 234.542969 394.613281 233.355469 C 394.019531 230.132812 387.242188 210.035156 381.988281 196.382812 L 376.5625 182.140625 L 379.105469 179.171875 C 380.546875 177.5625 381.730469 175.269531 381.730469 174.167969 C 381.730469 169.929688 375.035156 165.691406 369.699219 166.367188 C 365.800781 166.875 363.511719 168.742188 361.390625 172.980469 L 359.78125 176.035156 L 342.15625 180.78125 C 332.492188 183.410156 324.355469 185.363281 324.1875 185.105469 C 324.019531 184.9375 328.933594 179.851562 335.121094 173.746094 L 346.476562 162.808594 L 353.085938 162.808594 C 362.15625 162.808594 368.933594 160.773438 373.679688 156.617188 C 378.171875 152.632812 379.78125 149.832031 381.730469 142.796875 L 383.171875 137.707031 L 388.34375 137.453125 C 393.089844 137.199219 393.597656 137.03125 393.597656 135.417969 C 393.597656 134.402344 392.917969 132.789062 391.988281 131.859375 C 391.054688 130.839844 389.785156 127.109375 388.9375 122.953125 C 386.394531 109.980469 381.140625 101.417969 373.085938 97.347656 C 365.121094 93.277344 352.75 92.089844 343.59375 94.550781 Z M 307.152344 173.492188 C 295.375 186.125 286.8125 198.335938 286.8125 202.660156 C 286.8125 207.832031 293.507812 209.527344 304.527344 207.324219 C 310.542969 206.050781 336.5625 197.488281 353.511719 191.128906 C 356.5625 189.941406 359.441406 189.007812 359.867188 189.007812 C 360.460938 189.007812 360.546875 194.347656 360.121094 204.015625 C 359.613281 218.089844 359.441406 219.449219 357.15625 224.195312 C 352.070312 235.21875 335.289062 255.738281 312.238281 279.140625 C 296.984375 294.574219 293.253906 297.625 295.457031 292.792969 C 296.390625 290.757812 296.21875 290.335938 294.269531 288.636719 C 293.085938 287.621094 288.679688 284.90625 284.609375 282.703125 C 280.457031 280.5 276.558594 278.292969 275.964844 277.785156 C 275.203125 277.191406 281.136719 272.78125 298.847656 260.996094 C 312.070312 252.179688 323.507812 244.121094 324.273438 243.019531 C 325.628906 241.15625 326.222656 238.609375 325.96875 235.132812 C 325.714844 232.167969 319.527344 225.890625 311.984375 221.144531 C 308.171875 218.683594 298.761719 213.429688 291.050781 209.613281 C 283.421875 205.710938 276.984375 202.320312 276.8125 202.152344 C 276.050781 201.472656 287.660156 187.480469 294.269531 181.207031 C 300.882812 174.933594 313.171875 165.179688 313.847656 165.773438 C 314.019531 165.945312 311.050781 169.421875 307.152344 173.492188 Z M 274.015625 253.195312 C 274.015625 253.621094 271.472656 255.910156 268.339844 258.367188 C 257.066406 267.355469 245.878906 277.699219 242.234375 282.535156 C 238.253906 287.875 237.574219 290.929688 239.949219 293.472656 C 241.386719 294.996094 241.21875 295.082031 235.539062 294.828125 C 230.792969 294.660156 229.609375 294.320312 229.691406 293.21875 C 229.777344 292.199219 247.320312 266.082031 255.203125 255.316406 L 257.234375 252.601562 L 265.710938 252.601562 C 270.289062 252.601562 274.101562 252.855469 274.015625 253.195312 Z M 398.683594 297.371094 C 405.96875 302.714844 404.359375 313.738281 395.121094 321.707031 C 390.886719 325.269531 383.765625 327.644531 379.527344 326.796875 C 375.460938 326.03125 370.882812 321.878906 370.207031 318.144531 C 367.75 304.832031 388.257812 289.910156 398.683594 297.371094 Z M 187.65625 311.957031 C 187.65625 316.195312 179.183594 324.167969 172.742188 326.03125 C 166.808594 327.726562 162.65625 326.878906 159.097656 323.320312 C 156.722656 321.027344 156.300781 320.011719 156.300781 316.449219 C 156.300781 314.160156 156.554688 311.957031 156.894531 311.703125 C 157.824219 310.683594 187.65625 311.023438 187.65625 311.957031 Z M 187.65625 311.957031 " fill-opacity="1" fill-rule="nonzero"/><path fill="#000000" d="M 225.285156 121.511719 C 225.03125 122.191406 224.945312 123.800781 225.117188 125.160156 L 225.371094 127.535156 L 299.949219 127.535156 L 299.949219 120.75 L 262.828125 120.496094 C 231.386719 120.324219 225.710938 120.496094 225.285156 121.511719 Z M 225.285156 121.511719 " fill-opacity="1" fill-rule="nonzero"/><path fill="#000000" d="M 124.011719 132.960938 L 121.554688 135.417969 L 121.554688 173.746094 C 121.554688 215.546875 121.554688 215.71875 126.382812 217.753906 C 128.164062 218.429688 139.011719 218.683594 165.875 218.515625 C 202.402344 218.261719 202.914062 218.261719 204.691406 216.480469 C 205.707031 215.460938 206.8125 213.003906 207.148438 211.054688 C 207.488281 209.101562 207.574219 191.296875 207.320312 171.457031 L 206.894531 135.417969 L 204.863281 132.960938 L 202.742188 130.5 L 126.46875 130.5 Z M 136.636719 141.695312 C 137.402344 142.457031 137.65625 150.9375 137.65625 174.761719 C 137.65625 205.542969 137.570312 206.8125 136.046875 207.660156 C 134.773438 208.253906 134.097656 208.171875 133.078125 207.152344 C 131.894531 206.050781 131.722656 201.8125 131.722656 174.253906 C 131.722656 142.542969 131.894531 140.675781 134.6875 140.675781 C 135.199219 140.675781 136.046875 141.101562 136.636719 141.695312 Z M 136.636719 141.695312 " fill-opacity="1" fill-rule="nonzero"/><path fill="#000000" d="M 386.988281 181.546875 C 383.851562 183.15625 383.9375 185.617188 387.496094 195.027344 C 389.953125 201.8125 391.140625 203.847656 392.324219 203.847656 C 393.34375 203.847656 395.714844 200.878906 399.613281 194.519531 C 402.835938 189.347656 405.460938 184.769531 405.460938 184.175781 C 405.460938 182.394531 402.582031 181.460938 395.632812 180.953125 C 391.308594 180.699219 388.257812 180.867188 386.988281 181.546875 Z M 386.988281 181.546875 " fill-opacity="1" fill-rule="nonzero"/><path fill="#000000" d="M 22.398438 208.933594 C 21.550781 211.136719 22.058594 213.597656 23.582031 214.613281 C 24.941406 215.546875 94.601562 215.378906 96.042969 214.53125 C 97.652344 213.511719 97.652344 208.59375 96.042969 207.578125 C 95.367188 207.152344 78.753906 206.8125 59.007812 206.8125 L 23.246094 206.8125 Z M 22.398438 208.933594 " fill-opacity="1" fill-rule="nonzero"/><path fill="#000000" d="M 40.703125 251.414062 C 39.09375 253.027344 39.007812 255.144531 40.449219 257.097656 C 41.378906 258.453125 44.433594 258.539062 77.90625 258.367188 L 114.347656 258.113281 L 114.605469 254.804688 C 114.773438 252.769531 114.433594 251.246094 113.757812 250.820312 C 113.164062 250.398438 96.722656 250.058594 77.3125 250.058594 C 46.382812 250.058594 41.890625 250.226562 40.703125 251.414062 Z M 40.703125 251.414062 " fill-opacity="1" fill-rule="nonzero"/><path fill="#000000" d="M 22.3125 298.472656 C 21.632812 299.832031 21.632812 300.847656 22.3125 302.289062 L 23.246094 304.324219 L 59.601562 304.324219 C 95.960938 304.324219 96.042969 304.324219 97.0625 302.542969 C 97.738281 301.1875 97.738281 300.171875 97.0625 298.730469 L 96.128906 296.695312 L 59.769531 296.695312 C 23.414062 296.695312 23.328125 296.695312 22.3125 298.472656 Z M 22.3125 298.472656 " fill-opacity="1" fill-rule="nonzero"/></svg>