<?xml version="1.0" standalone="no"?>
<!DOCTYPE svg PUBLIC "-//W3C//DTD SVG 20010904//EN"
 "http://www.w3.org/TR/2001/REC-SVG-20010904/DTD/svg10.dtd">
<svg version="1.0" xmlns="http://www.w3.org/2000/svg"
 width="941.000000pt" height="680.000000pt" viewBox="0 0 941.000000 680.000000"
 preserveAspectRatio="xMidYMid meet">

<g transform="translate(0.000000,680.000000) scale(0.100000,-0.100000)"
fill="#000000" stroke="none">
<path d="M5010 6778 c-25 -6 -117 -13 -204 -16 -114 -5 -161 -11 -164 -19 -2
-9 -28 -13 -83 -13 -62 0 -81 -3 -85 -15 -5 -11 -22 -15 -64 -15 -34 0 -60 -5
-62 -11 -2 -6 -27 -14 -56 -17 -29 -2 -52 -8 -52 -13 0 -5 -12 -9 -27 -9 -31
0 -112 -24 -156 -46 -16 -8 -40 -14 -53 -14 -13 0 -24 -4 -24 -10 0 -5 -18
-13 -41 -16 -22 -4 -43 -13 -46 -20 -3 -8 -18 -14 -34 -14 -16 0 -29 -4 -29
-10 0 -5 -18 -15 -40 -21 -22 -7 -40 -16 -40 -21 0 -4 -9 -8 -19 -8 -11 0 -26
-6 -33 -13 -7 -7 -32 -19 -56 -27 -24 -7 -45 -17 -48 -21 -2 -4 -25 -18 -52
-30 -26 -13 -53 -29 -60 -36 -7 -7 -22 -13 -33 -13 -10 0 -19 -6 -19 -12 0 -7
-18 -21 -40 -31 -22 -10 -40 -24 -40 -30 0 -7 -20 -21 -45 -32 -25 -11 -45
-23 -45 -27 0 -5 -7 -8 -15 -8 -8 0 -15 -4 -15 -10 0 -5 -7 -10 -15 -10 -8 0
-24 -9 -35 -20 -11 -11 -24 -20 -30 -20 -5 0 -10 -6 -10 -12 0 -7 -18 -23 -40
-36 -22 -12 -40 -27 -40 -32 0 -6 -7 -10 -15 -10 -8 0 -15 -7 -15 -15 0 -8 -7
-15 -15 -15 -8 0 -15 -7 -15 -15 0 -8 -6 -15 -14 -15 -8 0 -50 -35 -94 -77
-44 -43 -95 -92 -113 -109 -51 -47 -129 -135 -129 -145 0 -5 -4 -9 -10 -9 -5
0 -10 -7 -10 -15 0 -8 -7 -15 -15 -15 -8 0 -15 -7 -15 -15 0 -8 -7 -15 -15
-15 -8 0 -15 -7 -15 -15 0 -8 -4 -15 -9 -15 -5 0 -12 -11 -15 -25 -4 -14 -13
-25 -21 -25 -8 0 -15 -4 -15 -9 0 -6 -13 -25 -30 -43 -17 -18 -30 -40 -30 -49
0 -9 -6 -19 -13 -22 -7 -3 -19 -23 -27 -46 -7 -23 -18 -41 -24 -41 -11 0 -28
-26 -42 -62 -3 -10 -13 -18 -20 -18 -9 0 -14 -11 -14 -30 0 -20 -5 -30 -15
-30 -9 0 -15 -9 -15 -24 0 -13 -6 -26 -14 -29 -8 -3 -17 -19 -21 -36 -4 -17
-11 -31 -16 -31 -5 0 -9 -7 -9 -15 0 -8 -4 -15 -10 -15 -5 0 -19 -31 -30 -70
-11 -38 -25 -70 -30 -70 -6 0 -10 -11 -10 -24 0 -13 -7 -29 -15 -36 -8 -7 -15
-19 -15 -27 0 -8 -7 -21 -15 -29 -8 -9 -15 -25 -15 -38 0 -12 -4 -26 -9 -31
-4 -6 -14 -31 -21 -57 -7 -27 -17 -48 -21 -48 -5 0 -9 -11 -9 -24 0 -13 -5
-26 -10 -28 -6 -2 -14 -29 -17 -61 -4 -38 -10 -57 -19 -57 -10 0 -14 -14 -14
-49 0 -28 -4 -53 -10 -56 -5 -3 -10 -33 -10 -65 0 -37 -4 -60 -12 -62 -8 -3
-14 -33 -16 -84 -3 -44 -9 -82 -16 -86 -19 -12 -46 -658 -27 -658 7 0 11 -49
11 -145 0 -122 2 -145 15 -145 12 0 15 -19 15 -112 1 -84 4 -118 15 -132 8
-11 15 -32 15 -48 0 -15 5 -28 10 -28 6 0 10 -19 10 -42 0 -24 7 -52 15 -62 8
-11 15 -39 15 -62 0 -25 6 -49 15 -58 8 -8 15 -26 15 -40 0 -14 4 -27 9 -30
15 -10 51 -90 51 -114 0 -12 4 -22 10 -22 5 0 15 -18 21 -40 7 -22 16 -40 21
-40 4 0 8 -11 8 -25 0 -13 6 -28 13 -32 7 -4 21 -34 32 -65 11 -32 23 -58 27
-58 4 0 8 -9 8 -20 0 -11 7 -23 15 -26 8 -4 15 -14 15 -24 0 -10 6 -25 13 -32
7 -7 22 -32 33 -55 10 -23 25 -43 32 -43 6 0 12 -8 12 -18 0 -10 12 -33 27
-51 16 -18 42 -60 59 -92 17 -33 43 -70 58 -84 14 -13 26 -26 26 -29 0 -7 26
-39 63 -78 15 -16 27 -33 27 -38 0 -6 7 -10 15 -10 8 0 15 -9 15 -20 0 -11 3
-20 8 -20 4 0 18 -18 32 -40 14 -22 27 -40 31 -40 10 0 99 -89 99 -100 0 -5 5
-10 10 -10 13 0 50 -37 50 -50 0 -5 4 -10 9 -10 5 0 28 -18 52 -41 68 -63 75
-69 88 -69 6 0 14 -7 17 -15 4 -8 12 -15 20 -15 8 0 14 -7 14 -15 0 -8 5 -15
10 -15 10 0 20 -7 78 -60 18 -17 37 -30 42 -30 6 0 10 -4 10 -9 0 -11 56 -41
77 -41 7 0 13 -6 13 -14 0 -8 10 -16 23 -20 12 -3 31 -13 43 -23 32 -29 82
-63 93 -63 5 0 11 -7 15 -15 3 -8 17 -15 31 -15 16 0 25 -6 25 -15 0 -9 9 -15
25 -15 14 0 28 -7 31 -15 4 -8 12 -15 19 -15 6 0 25 -6 41 -14 16 -7 48 -22
72 -32 23 -10 42 -21 42 -26 0 -4 13 -8 29 -8 16 0 31 -6 35 -15 3 -8 15 -15
26 -15 11 0 20 -4 20 -10 0 -5 18 -13 41 -16 22 -4 43 -13 46 -20 3 -8 17 -14
32 -14 15 0 36 -7 47 -15 10 -8 28 -15 40 -15 11 0 25 -5 32 -12 11 -11 63
-23 147 -35 22 -3 43 -10 47 -16 3 -6 37 -13 75 -17 37 -4 64 -8 58 -9 -5 -1
-3 -6 5 -11 8 -5 45 -10 83 -10 53 0 67 -3 67 -15 0 -12 19 -15 114 -15 92 0
115 -3 120 -15 8 -22 561 -22 590 0 14 11 47 15 116 15 69 0 102 4 116 15 11
8 42 14 76 15 34 0 62 5 70 14 8 7 38 15 67 18 29 3 56 10 60 15 6 10 47 18
143 30 26 3 53 12 59 19 6 8 25 14 41 14 16 0 31 6 34 15 4 9 19 15 39 15 19
0 40 6 47 13 7 8 26 17 41 21 15 3 27 11 27 16 0 6 7 10 16 10 9 0 28 6 42 14
59 30 179 85 215 97 20 7 37 17 37 21 0 4 5 8 10 8 10 0 69 38 80 51 3 4 15 9
26 13 12 4 33 17 48 31 14 13 40 32 58 42 18 10 39 24 46 31 7 6 18 12 24 12
15 0 101 66 161 123 50 48 118 80 125 58 2 -6 10 -11 18 -11 8 0 14 -3 14 -7
0 -9 94 -117 128 -147 13 -12 49 -48 80 -80 31 -33 91 -93 132 -132 41 -40 83
-81 93 -91 134 -138 267 -277 267 -279 0 -9 179 -184 188 -184 5 0 12 -7 16
-15 3 -8 14 -15 25 -15 10 0 21 -7 25 -15 3 -8 16 -15 30 -15 14 0 31 -7 40
-15 20 -20 96 -20 96 0 0 11 11 15 40 15 29 0 40 4 40 15 0 8 6 15 13 15 16 0
77 62 77 78 0 7 7 12 15 12 8 0 15 8 15 18 0 10 6 24 13 30 7 8 12 43 12 94 0
56 -4 83 -12 86 -7 2 -13 15 -13 28 0 15 -6 24 -15 24 -8 0 -15 6 -15 14 0 13
-150 170 -270 283 -25 23 -61 59 -81 80 -19 21 -67 68 -105 104 -38 37 -94 93
-125 125 -75 78 -285 281 -332 321 -20 17 -37 40 -37 51 0 30 30 81 71 122 41
40 129 169 129 187 0 7 7 13 15 13 8 0 15 7 15 15 0 8 4 15 10 15 5 0 12 11
16 25 3 14 12 25 20 25 8 0 14 10 14 24 0 13 3 26 8 28 13 6 52 67 52 83 0 8
4 15 8 15 4 0 16 23 27 51 11 28 26 54 33 56 6 3 12 18 12 33 0 16 7 30 15 34
8 3 15 17 15 31 0 14 4 25 10 25 5 0 14 18 20 40 6 22 15 40 20 40 6 0 10 11
10 25 0 14 7 28 15 31 8 4 15 18 15 33 0 15 7 36 15 47 8 10 15 31 15 47 0 15
4 27 8 27 5 0 17 37 26 83 10 45 24 95 32 110 8 16 14 49 14 74 0 26 3 43 7
39 4 -4 13 28 20 71 6 43 17 79 22 81 7 2 11 37 11 87 0 58 4 85 13 87 19 7
20 918 1 918 -11 0 -14 16 -14 65 0 51 -3 65 -15 65 -8 0 -17 10 -19 23 -12
58 -18 98 -23 170 -4 56 -9 77 -19 77 -10 0 -14 13 -14 45 0 25 -4 45 -10 45
-5 0 -10 6 -10 14 0 8 -7 16 -15 20 -8 3 -15 13 -15 23 0 10 -7 31 -15 47 -8
15 -15 39 -15 51 0 13 -7 30 -15 39 -8 8 -15 20 -15 26 0 7 -6 24 -14 38 -26
49 -56 118 -56 130 0 7 -4 12 -10 12 -5 0 -10 14 -10 30 0 20 -5 30 -15 30 -8
0 -15 5 -15 12 0 23 -85 187 -97 188 -7 0 -13 10 -13 23 0 12 -14 35 -30 51
-17 16 -30 38 -30 48 0 10 -6 18 -12 18 -7 0 -22 20 -33 45 -11 25 -23 45 -27
45 -5 0 -8 7 -8 15 0 8 -6 15 -12 15 -7 0 -21 18 -31 40 -10 22 -25 40 -33 40
-8 0 -14 7 -14 15 0 8 -7 15 -15 15 -8 0 -15 8 -15 18 0 9 -14 31 -30 49 -17
18 -30 37 -30 42 0 6 -7 11 -15 11 -8 0 -15 7 -15 15 0 8 -4 15 -10 15 -5 0
-10 7 -10 15 0 8 -7 15 -15 15 -8 0 -15 5 -15 10 0 6 -7 10 -15 10 -8 0 -15 7
-15 15 0 8 -7 15 -15 15 -8 0 -15 5 -15 10 0 6 -9 19 -20 30 -11 11 -24 20
-30 20 -5 0 -10 7 -10 15 0 8 -7 15 -15 15 -8 0 -15 7 -15 15 0 8 -7 15 -15
15 -8 0 -15 5 -15 11 0 14 -55 69 -69 69 -6 0 -11 4 -11 10 0 5 -20 21 -45 36
-25 14 -45 30 -45 35 0 5 -7 9 -15 9 -8 0 -15 7 -15 15 0 8 -4 15 -9 15 -6 0
-25 14 -43 30 -18 17 -38 30 -45 30 -7 0 -13 5 -13 11 0 5 -20 19 -45 30 -25
11 -45 24 -45 29 0 6 -6 10 -14 10 -8 0 -16 7 -20 15 -3 8 -15 15 -26 15 -11
0 -20 5 -20 10 0 6 -10 15 -22 20 -34 15 -62 33 -71 48 -4 6 -19 12 -32 12
-16 0 -25 6 -25 15 0 9 -9 15 -25 15 -14 0 -28 6 -31 14 -3 7 -24 19 -47 26
-23 8 -49 20 -58 27 -8 7 -27 13 -41 13 -14 0 -28 7 -32 15 -3 8 -16 15 -30
15 -13 0 -26 7 -30 15 -3 8 -14 15 -24 15 -10 0 -27 7 -38 15 -10 8 -31 15
-45 15 -15 0 -29 7 -33 15 -3 9 -18 15 -39 15 -19 0 -40 6 -46 14 -6 8 -24 16
-39 19 -15 2 -40 9 -57 15 -48 16 -123 32 -154 32 -16 0 -31 6 -35 15 -4 11
-21 15 -65 15 -40 0 -65 5 -75 15 -10 10 -35 15 -79 15 -43 0 -67 4 -69 13 -3
9 -50 14 -169 18 -91 3 -176 10 -192 17 -33 14 -152 14 -217 0z m665 -597 c55
-12 109 -26 120 -31 11 -5 36 -13 55 -19 19 -5 60 -19 90 -31 30 -12 66 -25
80 -28 13 -3 31 -11 38 -19 7 -7 24 -13 37 -13 13 0 30 -7 39 -15 8 -8 23 -15
33 -15 10 0 27 -7 37 -15 11 -8 26 -15 34 -15 20 0 126 -53 135 -67 4 -7 16
-13 26 -13 11 0 21 -7 25 -15 3 -8 17 -15 31 -15 14 0 25 -6 25 -12 0 -7 20
-22 43 -32 23 -11 44 -22 47 -25 14 -17 126 -87 153 -97 9 -3 17 -13 17 -20 0
-8 5 -14 10 -14 10 0 25 -11 80 -61 17 -16 36 -29 41 -29 5 0 9 -7 9 -15 0 -8
5 -15 10 -15 6 0 21 -11 34 -25 13 -14 26 -25 30 -25 10 0 46 -39 46 -50 0 -5
5 -10 10 -10 11 0 50 -36 50 -46 0 -3 25 -31 55 -60 30 -30 55 -56 55 -59 0
-2 10 -15 23 -28 56 -58 93 -104 107 -132 8 -16 25 -43 38 -59 13 -17 28 -40
33 -53 5 -13 13 -23 18 -23 5 0 11 -8 15 -17 3 -10 15 -31 26 -48 11 -16 26
-42 32 -57 7 -16 16 -28 20 -28 4 0 8 -11 8 -25 0 -15 6 -25 14 -25 8 0 16
-14 19 -32 17 -106 21 -118 33 -118 9 0 14 -11 14 -30 0 -20 5 -30 15 -30 11
0 15 -11 15 -40 0 -29 4 -40 15 -40 11 0 15 -12 15 -45 0 -33 4 -45 15 -45 11
0 15 -11 15 -40 0 -29 4 -40 15 -40 9 0 15 -9 15 -24 0 -13 7 -29 15 -36 8 -7
15 -27 15 -46 0 -18 6 -37 14 -41 8 -5 16 -31 19 -63 10 -108 28 -235 37 -264
14 -40 13 -653 0 -658 -6 -2 -13 -47 -17 -101 -3 -54 -10 -100 -15 -103 -4 -3
-8 -27 -8 -54 0 -26 -5 -50 -11 -52 -5 -2 -13 -24 -16 -48 -2 -25 -11 -59 -19
-77 -8 -17 -14 -40 -14 -52 0 -12 -4 -21 -9 -21 -5 0 -12 -20 -15 -44 -4 -24
-14 -50 -21 -56 -8 -7 -15 -25 -15 -40 0 -15 -7 -33 -15 -40 -8 -7 -15 -20
-15 -30 0 -10 -7 -23 -15 -30 -8 -7 -15 -21 -15 -31 0 -10 -4 -21 -10 -24 -5
-3 -10 -15 -10 -25 0 -22 -59 -140 -70 -140 -5 0 -11 -13 -15 -29 -3 -16 -13
-32 -21 -35 -8 -3 -14 -13 -14 -22 0 -9 -13 -33 -30 -54 -16 -21 -30 -42 -30
-46 0 -5 -12 -20 -25 -33 -14 -13 -33 -39 -42 -58 -9 -20 -29 -50 -45 -67 -15
-17 -28 -36 -28 -44 0 -7 -7 -15 -15 -18 -8 -4 -15 -12 -15 -20 0 -8 -5 -14
-11 -14 -15 0 -121 -109 -139 -143 -18 -36 -69 -87 -87 -87 -15 0 -133 -115
-133 -130 0 -5 -7 -10 -15 -10 -8 0 -15 -4 -15 -9 0 -5 -20 -21 -45 -35 -25
-15 -45 -30 -45 -34 0 -4 -19 -16 -42 -26 -23 -10 -52 -28 -64 -41 -11 -12
-31 -26 -42 -30 -12 -3 -22 -11 -22 -16 0 -5 -7 -9 -15 -9 -8 0 -15 -4 -15 -9
0 -5 -12 -12 -26 -15 -15 -4 -33 -14 -41 -21 -8 -8 -23 -15 -34 -15 -10 0 -19
-7 -19 -15 0 -8 -9 -15 -20 -15 -11 0 -23 -7 -26 -15 -4 -9 -19 -15 -35 -15
-16 0 -29 -4 -29 -10 0 -5 -9 -10 -19 -10 -11 0 -26 -7 -35 -15 -8 -8 -21 -15
-28 -15 -8 0 -41 -13 -73 -30 -32 -16 -64 -30 -71 -30 -6 0 -25 -7 -40 -15
-16 -8 -38 -15 -49 -15 -11 0 -29 -7 -39 -15 -11 -8 -33 -15 -49 -15 -16 0
-41 -6 -55 -14 -15 -8 -48 -18 -74 -21 -27 -3 -48 -10 -48 -16 0 -5 -19 -9
-42 -9 -24 0 -61 -5 -83 -10 -22 -5 -87 -12 -145 -15 -58 -4 -114 -11 -125
-16 -43 -21 -535 2 -655 30 -25 6 -64 11 -87 11 -23 0 -43 4 -45 9 -1 6 -32
15 -67 20 -36 6 -69 15 -75 21 -5 5 -22 10 -37 10 -15 0 -34 7 -43 15 -8 8
-25 15 -38 15 -13 0 -33 7 -44 15 -10 8 -28 15 -40 15 -11 0 -29 7 -40 15 -10
8 -31 15 -45 15 -15 0 -29 7 -33 15 -3 8 -15 15 -26 15 -11 0 -20 4 -20 9 0 5
-15 12 -32 16 -38 7 -136 53 -156 72 -7 7 -19 13 -26 13 -8 0 -19 7 -26 15 -7
8 -21 15 -31 15 -11 0 -19 5 -19 10 0 6 -10 15 -22 20 -35 15 -75 42 -109 73
-10 9 -22 17 -25 17 -8 0 -98 64 -102 73 -2 4 -8 7 -12 7 -5 0 -31 21 -58 48
-64 62 -112 102 -123 102 -5 0 -9 5 -9 10 0 6 -7 10 -15 10 -8 0 -15 7 -15 15
0 8 -7 15 -15 15 -8 0 -15 7 -15 15 0 8 -7 15 -15 15 -8 0 -15 7 -15 15 0 8
-7 15 -15 15 -8 0 -15 7 -15 15 0 8 -4 15 -10 15 -5 0 -10 5 -10 10 0 6 -8 18
-17 29 -39 41 -73 84 -73 92 0 5 -7 9 -15 9 -8 0 -15 7 -15 15 0 8 -7 15 -15
15 -8 0 -15 7 -15 15 0 16 -8 27 -42 66 -10 10 -18 24 -18 29 0 6 -4 10 -10
10 -5 0 -10 5 -10 10 0 11 -10 24 -42 61 -10 10 -18 25 -18 33 0 7 -13 29 -30
47 -16 19 -30 42 -30 52 0 10 -7 20 -15 23 -8 4 -15 15 -15 25 0 11 -7 22 -15
25 -8 4 -15 14 -15 24 0 10 -6 25 -13 32 -8 7 -17 26 -21 41 -3 15 -11 27 -16
27 -6 0 -10 9 -10 20 0 11 -4 28 -9 38 -24 43 -41 87 -41 102 0 10 -6 23 -14
29 -8 6 -17 32 -21 56 -3 25 -10 45 -16 45 -5 0 -9 16 -9 35 0 22 -6 38 -15
41 -12 5 -15 25 -15 95 0 72 -3 89 -15 89 -12 0 -15 14 -15 70 0 56 -3 70 -15
70 -12 0 -15 16 -15 86 0 50 -4 83 -9 79 -18 -10 -23 16 -22 120 1 60 -3 106
-9 110 -13 8 -13 148 -1 161 6 5 12 77 14 159 4 163 20 292 43 342 8 17 14 45
14 61 0 17 4 33 9 36 4 3 11 28 15 55 3 27 13 54 21 61 8 7 15 28 15 46 0 19
4 34 9 34 5 0 14 20 20 45 6 25 16 45 21 45 6 0 10 14 10 30 0 17 4 30 9 30 5
0 12 18 16 40 4 22 11 42 16 46 5 3 9 13 9 23 0 10 7 24 15 31 8 7 15 20 15
30 0 10 7 23 15 30 8 7 15 21 15 30 0 10 3 20 8 22 10 4 82 124 82 137 0 6 4
11 10 11 5 0 12 11 16 24 3 13 19 36 35 52 16 15 29 34 29 41 0 7 5 13 10 13
6 0 10 7 10 15 0 9 12 28 28 44 31 32 50 59 58 84 4 9 11 17 16 17 12 0 87 83
112 124 20 35 142 156 157 156 5 0 43 34 84 75 42 41 81 75 88 75 7 0 26 14
44 30 18 17 34 30 38 30 3 0 41 25 85 55 44 30 85 55 91 55 6 0 28 14 49 30
21 17 43 30 49 30 7 0 14 7 17 15 4 8 14 15 24 15 10 0 25 6 32 13 7 7 33 19
58 27 25 8 56 20 70 27 14 7 32 13 41 13 9 0 22 7 29 15 7 8 20 15 29 15 9 0
25 6 36 14 11 7 37 16 58 20 20 4 37 11 37 15 0 5 18 11 40 15 22 3 40 11 40
16 0 6 13 10 30 10 16 0 47 7 67 15 142 55 247 64 728 61 405 -2 436 -4 530
-25z"/>
</g>
</svg>
